<svg id="visual" viewBox="0 0 900 600" width="900" height="600" xmlns="http://www.w3.org/2000/svg" xmlns:xlink="http://www.w3.org/1999/xlink" version="1.1"><rect x="0" y="0" width="900" height="600" fill="#d22727"></rect><path d="M0 248L30 262.8C60 277.7 120 307.3 180 307.5C240 307.7 300 278.3 360 279.7C420 281 480 313 540 309.3C600 305.7 660 266.3 720 262.2C780 258 840 289 870 304.5L900 320L900 601L870 601C840 601 780 601 720 601C660 601 600 601 540 601C480 601 420 601 360 601C300 601 240 601 180 601C120 601 60 601 30 601L0 601Z" fill="#edf1f7" stroke-linecap="round" stroke-linejoin="miter"></path></svg>